<!DOCTYPE svg PUBLIC "-//W3C//DTD SVG 1.1//EN" "http://www.w3.org/Graphics/SVG/1.1/DTD/svg11.dtd">
<!-- Uploaded to: SVG Repo, www.svgrepo.com, Transformed by: SVG Repo Mixer Tools -->
<svg fill="#53f0b8" width="800px" height="800px" viewBox="0 0 32 32" xmlns="http://www.w3.org/2000/svg" stroke="#53f0b8">
<g id="SVGRepo_bgCarrier" stroke-width="0"/>
<g id="SVGRepo_tracerCarrier" stroke-linecap="round" stroke-linejoin="round"/>
<g id="SVGRepo_iconCarrier"> <title/> <g data-name="Layer 2" id="Layer_2"> <path d="M26,22a4,4,0,0,0-2.67,1L10,16.36c0-.12,0-.24,0-.36s0-.24,0-.36L23.33,9A4,4,0,1,0,22,6a3.81,3.81,0,0,0,.23,1.27L9.29,13.74a4,4,0,1,0,0,4.52l12.94,6.47A3.81,3.81,0,0,0,22,26a4,4,0,1,0,4-4ZM26,4a2,2,0,1,1-2,2A2,2,0,0,1,26,4ZM6,18a2,2,0,1,1,2-2A2,2,0,0,1,6,18ZM26,28a2,2,0,1,1,2-2A2,2,0,0,1,26,28Z"/> </g> </g>
</svg>